<?xml version="1.0" standalone="no"?>
<!DOCTYPE svg PUBLIC "-//W3C//DTD SVG 20010904//EN"
 "http://www.w3.org/TR/2001/REC-SVG-20010904/DTD/svg10.dtd">
<svg version="1.0" xmlns="http://www.w3.org/2000/svg"
 width="1080.000000pt" height="1080.000000pt" viewBox="0 0 1080.000000 1080.000000"
 preserveAspectRatio="xMidYMid meet">

<g transform="translate(0.000000,1080.000000) scale(0.100000,-0.100000)"
fill="#000000" stroke="none">
<path d="M2189 6985 c-179 -28 -330 -98 -399 -185 -121 -153 -100 -364 50
-504 45 -42 138 -96 166 -96 6 0 19 8 28 19 28 31 130 71 208 81 40 5 274 10
519 10 491 0 490 0 620 66 74 37 165 115 211 181 16 25 63 134 103 244 l73
199 -747 -1 c-570 -1 -766 -4 -832 -14z"/>
<path d="M7740 5820 l0 -940 190 0 190 0 0 940 0 940 -190 0 -190 0 0 -940z"/>
<path d="M5145 6659 c-227 -33 -420 -162 -501 -334 -34 -70 -38 -88 -42 -179
-8 -172 29 -268 142 -373 104 -97 254 -158 497 -202 246 -44 335 -104 308
-206 -19 -66 -124 -127 -245 -140 -116 -13 -257 33 -324 105 l-36 39 -165 -60
c-90 -34 -168 -65 -173 -69 -15 -14 57 -133 115 -190 95 -93 218 -156 365
-186 119 -25 323 -15 429 19 210 69 367 223 405 398 7 32 11 95 8 147 -6 123
-49 214 -144 300 -128 118 -286 180 -579 228 -155 25 -206 53 -225 125 -48
177 311 275 521 143 20 -12 47 -36 60 -52 l24 -29 167 61 c92 33 170 64 174
68 3 4 -4 28 -16 53 -114 236 -445 380 -765 334z"/>
<path d="M7174 6641 c-117 -71 -126 -235 -18 -318 69 -52 198 -41 256 24 80
88 52 244 -54 299 -41 21 -146 18 -184 -5z"/>
<path d="M6280 6330 l0 -200 -80 0 -80 0 0 -185 0 -185 80 0 80 0 0 -440 0
-440 190 0 190 0 0 440 0 440 105 0 105 0 0 185 0 185 -105 0 -105 0 0 200 0
200 -190 0 -190 0 0 -200z"/>
<path d="M1276 6272 c-13 -40 -26 -163 -26 -243 -1 -406 249 -755 646 -905 35
-13 107 -33 161 -45 91 -20 137 -22 638 -29 504 -7 547 -9 640 -29 205 -46
346 -119 471 -246 63 -64 90 -102 126 -174 26 -51 48 -88 51 -84 3 5 11 46 17
92 19 127 8 315 -24 424 -91 309 -324 547 -638 651 -169 57 -183 58 -773 66
-542 7 -551 8 -656 33 -282 68 -478 208 -583 418 -31 61 -46 83 -50 71z"/>
<path d="M8812 6159 c-208 -35 -400 -208 -479 -431 -35 -97 -43 -277 -19 -383
49 -206 209 -391 403 -465 72 -28 256 -39 342 -20 120 26 254 110 341 215 56
68 117 195 135 280 98 469 -271 879 -723 804z m182 -381 c57 -17 138 -99 159
-162 65 -192 -51 -390 -228 -390 -229 0 -335 312 -167 488 67 70 145 91 236
64z"/>
<path d="M7080 5505 l0 -625 190 0 190 0 0 625 0 625 -190 0 -190 0 0 -625z"/>
<path d="M3226 4581 c-28 -31 -126 -69 -209 -80 -47 -7 -274 -11 -566 -11
-535 0 -549 -1 -662 -61 -82 -44 -166 -115 -211 -179 -26 -37 -61 -118 -108
-249 -39 -106 -70 -195 -70 -197 0 -9 1561 -3 1640 6 240 30 406 119 475 257
27 52 30 68 30 153 0 87 -3 101 -32 160 -39 79 -105 148 -183 189 -67 36 -81
38 -104 12z"/>
<path d="M4705 4528 c-2 -7 -23 -110 -45 -228 -23 -118 -43 -223 -46 -232 -4
-14 1 -18 24 -18 34 0 33 -5 74 222 12 65 25 118 28 118 3 0 18 -35 34 -78 87
-233 87 -233 108 -230 17 2 32 33 77 150 31 80 59 149 62 153 4 3 21 -71 39
-165 l32 -170 30 0 c26 0 29 3 25 23 -3 12 -24 122 -48 245 -40 206 -44 222
-64 222 -18 0 -30 -24 -85 -170 -35 -94 -67 -167 -71 -163 -4 5 -32 73 -63
153 -30 80 -58 153 -61 163 -8 20 -44 23 -50 5z"/>
<path d="M5397 4533 c-11 -10 -8 -283 4 -333 32 -141 173 -203 288 -127 70 46
81 86 81 290 l0 177 -25 0 -25 0 0 -147 c-1 -182 -8 -218 -54 -260 -60 -55
-149 -41 -192 31 -16 26 -19 56 -22 204 -4 171 -4 172 -26 172 -13 0 -26 -3
-29 -7z"/>
<path d="M6030 4296 l0 -246 98 0 c116 0 158 10 214 53 114 87 124 258 22 361
-55 54 -99 69 -221 74 l-113 5 0 -247z m235 165 c140 -63 151 -250 21 -326
-36 -21 -56 -25 -119 -25 l-77 0 0 185 0 185 68 0 c43 0 81 -7 107 -19z"/>
<path d="M6799 4513 c-11 -29 -59 -161 -128 -351 l-41 -113 31 3 c27 3 34 9
48 48 l17 45 115 3 115 3 18 -51 c16 -44 21 -50 47 -50 16 0 29 2 29 4 0 6
-148 413 -165 452 -12 28 -19 34 -45 34 -24 0 -33 -6 -41 -27z m86 -170 c21
-60 40 -114 43 -120 3 -10 -19 -13 -88 -13 -50 0 -90 4 -88 8 2 4 21 58 43
120 22 62 43 112 46 112 4 0 23 -48 44 -107z"/>
<path d="M7300 4295 l0 -245 25 0 25 0 0 187 c0 148 3 184 12 175 7 -7 62 -90
123 -185 102 -159 113 -172 143 -175 l32 -3 0 246 0 246 -27 -3 -28 -3 -5
-184 -5 -183 -119 186 c-109 171 -121 186 -147 186 l-29 0 0 -245z"/>
<path d="M7927 4533 c-4 -3 -7 -17 -7 -29 0 -23 0 -24 159 -26 l159 -3 -159
-185 c-120 -140 -158 -192 -159 -212 l0 -28 200 0 200 0 0 30 0 29 -156 3
-155 3 155 182 c126 148 156 189 156 213 l0 30 -193 0 c-107 0 -197 -3 -200
-7z"/>
<path d="M8725 4528 c-46 -128 -156 -430 -164 -451 -11 -28 -10 -28 21 -25 28
3 35 9 49 48 l17 45 115 3 115 3 18 -51 c16 -44 21 -50 46 -50 15 0 28 3 28 8
0 4 -39 114 -86 245 l-87 237 -34 0 c-18 0 -36 -6 -38 -12z m85 -191 c22 -59
40 -112 40 -117 0 -6 -37 -10 -90 -10 l-89 0 34 93 c49 136 55 150 60 145 3
-2 23 -52 45 -111z"/>
<path d="M9265 4526 c-49 -21 -85 -71 -85 -117 0 -83 38 -115 169 -145 39 -9
83 -25 97 -36 59 -47 0 -128 -93 -128 -47 0 -75 11 -108 41 -22 20 -65 16 -65
-6 0 -21 66 -73 107 -84 108 -30 223 20 239 104 15 83 -39 136 -166 165 -82
18 -89 20 -105 36 -21 22 -19 77 4 98 47 43 151 39 200 -7 21 -20 30 -23 49
-14 12 5 22 13 22 17 0 14 -56 63 -87 76 -41 18 -139 17 -178 0z"/>
</g>
</svg>
