<?xml version="1.0" standalone="no"?>
<!DOCTYPE svg PUBLIC "-//W3C//DTD SVG 20010904//EN"
 "http://www.w3.org/TR/2001/REC-SVG-20010904/DTD/svg10.dtd">
<svg version="1.0" xmlns="http://www.w3.org/2000/svg"
 width="649.000000pt" height="250.000000pt" viewBox="0 0 649.000000 250.000000"
 preserveAspectRatio="xMidYMid meet">
<metadata>
Created by potrace 1.16, written by Peter Selinger 2001-2019
</metadata>
<g transform="translate(0.000000,250.000000) scale(0.100000,-0.100000)"
fill="#000000" stroke="none">
<path d="M680 2484 c-148 -32 -249 -95 -294 -185 -21 -43 -26 -67 -26 -126 0
-113 43 -195 133 -257 70 -47 102 -54 130 -28 58 55 70 56 517 62 360 5 421 8
460 23 103 40 202 118 245 191 20 36 125 312 125 329 0 4 -276 7 -612 6 -487
0 -626 -3 -678 -15z"/>
<path d="M5070 1580 l0 -740 150 0 150 0 0 740 0 740 -150 0 -150 0 0 -740z"/>
<path d="M2970 2224 c-234 -62 -373 -238 -357 -451 16 -212 167 -331 501 -394
127 -24 198 -51 226 -87 60 -75 -31 -161 -182 -170 -101 -6 -177 17 -231 71
l-38 38 -128 -46 c-70 -25 -133 -50 -140 -54 -20 -13 29 -100 89 -159 256
-252 770 -194 915 103 34 68 45 186 26 270 -37 164 -226 288 -512 336 -180 30
-219 51 -219 119 0 48 27 82 88 112 101 49 284 21 347 -53 13 -16 28 -29 34
-29 5 0 68 21 140 46 100 35 131 51 131 64 0 9 -18 44 -39 77 -62 97 -176 171
-316 208 -76 19 -260 19 -335 -1z"/>
<path d="M4622 2220 c-128 -78 -73 -280 77 -280 92 0 155 61 155 149 -1 93
-58 151 -149 151 -32 0 -62 -7 -83 -20z"/>
<path d="M3930 1980 l0 -150 -65 0 -65 0 0 -155 0 -155 65 0 65 0 0 -340 0
-340 150 0 150 0 0 340 0 340 85 0 85 0 0 155 0 155 -85 0 -85 0 0 150 0 150
-150 0 -150 0 0 -150z"/>
<path d="M11 1910 c-16 -74 -13 -274 4 -350 52 -222 230 -424 456 -518 144
-60 191 -65 669 -72 396 -6 442 -9 516 -28 214 -55 358 -163 441 -330 34 -69
38 -72 47 -50 5 12 10 97 10 188 1 153 -1 171 -26 245 -91 267 -307 449 -613
516 -28 6 -242 14 -495 19 -413 7 -451 9 -525 29 -204 56 -354 169 -430 324
-21 42 -39 77 -41 77 -1 0 -7 -23 -13 -50z"/>
<path d="M5848 1831 c-171 -56 -307 -219 -338 -404 -50 -295 137 -568 418
-609 154 -23 294 24 406 136 257 255 189 695 -131 853 -73 36 -82 38 -187 40
-87 2 -124 -1 -168 -16z m215 -297 c94 -48 143 -155 117 -255 -63 -240 -369
-195 -370 54 0 151 137 260 253 201z"/>
<path d="M4550 1335 l0 -495 150 0 150 0 0 495 0 495 -150 0 -150 0 0 -495z"/>
<path d="M1541 616 c-7 -8 -33 -25 -59 -38 -47 -23 -51 -23 -497 -28 -424 -5
-453 -7 -505 -26 -115 -43 -215 -128 -255 -217 -13 -29 -44 -109 -69 -179
l-46 -128 646 0 c549 0 656 2 722 16 140 29 253 99 298 186 25 49 30 164 10
226 -22 65 -93 145 -157 178 -56 28 -72 30 -88 10z"/>
<path d="M6273 580 c-76 -24 -110 -124 -59 -175 13 -13 43 -29 67 -35 137 -37
165 -63 115 -107 -37 -32 -95 -31 -134 1 -19 17 -36 23 -50 19 -65 -17 34
-103 118 -103 35 0 94 23 116 45 18 18 24 35 24 70 0 60 -28 88 -106 110 -112
30 -109 28 -112 62 -3 27 2 34 27 47 16 9 42 16 56 16 31 0 81 -24 87 -42 4
-10 10 -10 32 0 26 12 27 14 13 35 -33 50 -127 77 -194 57z"/>
<path d="M2661 406 c-18 -97 -35 -185 -38 -196 -4 -17 0 -20 25 -20 l30 0 23
120 c13 66 26 120 29 120 3 0 23 -48 45 -107 32 -86 45 -109 61 -111 18 -3 27
12 65 112 24 63 45 114 46 112 2 -2 14 -57 27 -122 22 -115 24 -119 49 -122
34 -4 34 -5 -3 188 -42 214 -37 200 -63 200 -19 0 -28 -15 -66 -117 -24 -65
-46 -121 -50 -125 -4 -4 -27 48 -52 115 -40 107 -49 122 -70 125 -24 3 -25 0
-58 -172z"/>
<path d="M3230 458 c0 -145 11 -191 54 -234 70 -70 193 -49 235 40 18 36 21
61 21 179 l0 137 -25 0 -25 0 0 -107 c0 -60 -5 -126 -10 -148 -22 -97 -134
-115 -179 -28 -6 13 -11 76 -11 152 l0 131 -30 0 -30 0 0 -122z"/>
<path d="M3730 385 l0 -195 88 0 c63 0 98 6 127 19 116 53 150 204 68 302 -43
50 -95 69 -195 69 l-88 0 0 -195z m200 120 c63 -33 90 -130 51 -189 -31 -47
-69 -66 -133 -66 l-58 0 0 135 0 135 55 0 c31 0 69 -7 85 -15z"/>
<path d="M4268 393 c-38 -104 -68 -192 -68 -196 0 -4 13 -7 30 -7 25 0 31 5
41 40 l12 40 84 0 85 0 15 -40 c14 -34 21 -40 45 -40 15 0 28 3 28 8 -1 4 -31
90 -69 192 l-67 185 -35 3 -34 3 -67 -188z"/>
<path d="M4720 386 l0 -196 30 0 29 0 3 134 3 134 85 -134 c75 -119 88 -134
113 -134 l27 0 0 195 0 195 -25 0 -24 0 -3 -137 -3 -138 -86 135 c-78 122 -89
135 -118 138 l-31 3 0 -195z"/>
<path d="M5210 550 l0 -29 115 -3 114 -3 -114 -135 c-85 -100 -115 -142 -115
-162 l0 -28 160 0 160 0 0 30 0 29 -116 3 -116 3 116 135 c85 100 115 142 116
163 l0 27 -160 0 -160 0 0 -30z"/>
<path d="M5829 553 c-22 -56 -129 -354 -129 -359 0 -2 13 -4 28 -4 24 0 31 6
45 40 l15 40 85 0 84 0 12 -40 c10 -35 16 -40 41 -40 17 0 30 3 30 7 0 4 -30
92 -67 195 l-68 188 -33 0 c-26 0 -35 -5 -43 -27z"/>
</g>
</svg>
